<?xml version="1.0" standalone="no"?>
<!DOCTYPE svg PUBLIC "-//W3C//DTD SVG 20010904//EN"
 "http://www.w3.org/TR/2001/REC-SVG-20010904/DTD/svg10.dtd">
<svg version="1.0" xmlns="http://www.w3.org/2000/svg"
 width="300.000000pt" height="184.000000pt" viewBox="0 0 300.000000 184.000000"
 preserveAspectRatio="xMidYMid meet">
<metadata>
Created by potrace 1.10, written by Peter Selinger 2001-2011
</metadata>
<g transform="translate(0.000000,184.000000) scale(0.100000,-0.100000)"
fill="#000000" stroke="none">
<path d="M1293 1696 c-82 -87 -93 -95 -158 -116 -84 -27 -216 -95 -305 -158
-83 -59 -171 -130 -188 -150 -11 -15 -14 -14 -28 7 -26 37 -90 61 -164 61 -62
0 -67 -2 -112 -41 -63 -53 -78 -104 -78 -258 0 -141 16 -205 51 -209 23 -2
113 -23 429 -98 85 -20 202 -47 260 -61 255 -59 675 -160 735 -177 33 -9 49
-18 46 -27 -10 -33 -13 -82 -7 -114 5 -27 17 -42 49 -62 36 -23 56 -28 134
-31 105 -5 154 7 375 90 15 5 31 7 36 4 8 -5 168 -43 217 -51 39 -7 230 -54
249 -61 17 -6 18 -3 11 47 -16 114 -138 415 -192 471 -23 24 -24 30 -14 59 6
18 11 45 11 61 0 16 15 66 32 111 30 76 33 91 33 199 0 147 -8 160 -76 129
-24 -11 -82 -36 -129 -55 -83 -34 -86 -35 -127 -21 -23 8 -93 44 -155 80 -72
41 -163 83 -253 114 -77 28 -172 63 -212 80 -40 16 -97 36 -129 43 -43 10 -58
18 -65 36 -11 30 -135 178 -155 186 -27 10 -30 8 -121 -88z m163 -24 c28 -37
58 -81 67 -98 17 -33 35 -42 131 -69 32 -9 83 -28 115 -42 31 -14 106 -42 166
-63 146 -50 174 -63 282 -127 51 -29 107 -59 125 -65 18 -6 43 -18 55 -25 19
-12 26 -12 52 1 42 22 201 86 214 86 18 0 1 -179 -23 -240 -18 -48 -37 -120
-57 -223 -4 -21 2 -39 24 -70 41 -57 86 -148 139 -281 51 -127 55 -151 22
-142 -13 3 -68 15 -123 26 -119 25 -155 38 -155 56 0 8 -10 15 -22 16 -13 0
-30 2 -38 3 -21 2 -160 -37 -265 -76 -76 -27 -104 -32 -185 -33 -127 -1 -157
15 -162 86 -2 41 2 58 26 96 15 25 38 53 49 62 21 17 18 50 -3 50 -14 0 -65
-50 -71 -68 -4 -11 -17 -9 -64 7 -33 11 -118 34 -190 50 -71 17 -224 53 -340
80 -115 28 -365 87 -555 131 -189 45 -346 83 -348 85 -10 10 -23 176 -17 225
10 95 24 126 71 159 86 62 176 28 263 -99 13 -19 31 -40 40 -47 23 -17 38 2
20 24 -8 10 -21 30 -28 45 -18 35 -16 38 123 142 146 110 237 162 351 201 91
31 94 34 171 118 44 47 81 85 84 85 3 1 28 -29 56 -66z"/>
<path d="M399 1219 c-9 -17 -8 -25 6 -38 15 -15 18 -14 35 7 11 13 16 30 13
37 -8 22 -41 18 -54 -6z"/>
<path d="M500 1185 c-18 -21 5 -47 38 -43 33 4 53 35 32 48 -22 14 -56 12 -70
-5z"/>
<path d="M352 1128 c-16 -16 -15 -33 3 -48 20 -17 47 5 43 34 -4 24 -28 32
-46 14z"/>
<path d="M426 1104 c-12 -30 -6 -72 13 -95 19 -23 21 -23 48 -9 34 19 44 77
18 104 -21 21 -71 21 -79 0z m70 -30 c7 -26 -10 -54 -32 -54 -8 0 -14 6 -15
13 0 6 -3 23 -5 37 -3 21 0 25 21 26 19 2 27 -4 31 -22z"/>
<path d="M1017 1092 c-20 -22 -22 -83 -5 -100 18 -18 73 -14 91 6 21 23 22 76
1 96 -21 22 -67 20 -87 -2z"/>
<path d="M1200 985 c0 -43 33 -65 95 -65 47 0 59 -4 78 -25 24 -28 79 -42 122
-31 20 5 26 12 23 29 -3 19 -8 22 -47 19 -47 -3 -71 10 -71 38 0 10 -7 23 -15
30 -13 11 -22 10 -49 -5 -39 -21 -81 -14 -89 15 -8 31 -47 27 -47 -5z"/>
<path d="M1816 839 c-22 -17 -27 -28 -24 -58 3 -34 5 -36 41 -39 49 -4 67 11
67 57 0 62 -35 78 -84 40z"/>
<path d="M1632 263 c-49 -17 -64 -40 -38 -59 14 -10 26 -9 64 3 56 19 77 36
69 57 -8 20 -38 19 -95 -1z"/>
<path d="M1741 186 c-7 -8 -11 -34 -9 -58 3 -38 6 -43 28 -43 22 0 25 5 28 43
4 59 -21 90 -47 58z"/>
<path d="M1992 177 c-9 -10 0 -28 35 -75 25 -34 49 -62 53 -62 4 0 13 7 21 16
10 13 9 21 -6 47 -23 42 -66 87 -81 87 -6 0 -16 -6 -22 -13z"/>
</g>
</svg>
